<svg xmlns="http://www.w3.org/2000/svg" width="125" height="52" viewBox="0 0 125 52">
    <defs>
        <clipPath id="4fpkd67fqa">
            <path data-name="사각형 157" style="fill:none" d="M0 0h124v43.148H0z"/>
        </clipPath>
    </defs>
    <g data-name="그룹 776">
        <g data-name="그룹 775">
            <g data-name="그룹 535">
                <g data-name="그룹 285" transform="translate(0 4.102)" style="clip-path:url(#4fpkd67fqa)">
                    <path data-name="패스 26975" d="M135.542 15.538c-.582-4.508-3.776-9.637-8.326-13.367 4.9 1.725 9.149.894 11.066-2.171.582 4.508 3.776 9.637 8.324 13.366-4.9-1.728-9.147-.893-11.064 2.172" transform="translate(-39.729)" style="fill:#ec1c24"/>
                    <path data-name="사각형 155" d="M19.016 20.73h3.544v22.418h-3.544z"/>
                    <path data-name="패스 26976" d="M13.685 24.159v2.859h-2.843a37.911 37.911 0 0 0 .237-6.287H.354v2.982H7.5a17.207 17.207 0 0 1-.2 3.305H.715v2.983h5.66C5.293 32.306 3.17 34.015 0 35.746l1.734 2.515c4.8-2.7 7.286-5.064 8.377-8.26h3.573v13.147h3.538V20.731H12a3.7 3.7 0 0 1 1.684 3.428"/>
                    <path data-name="패스 26977" d="M66.187 24.159v18.99h3.62V20.731h-5.3a3.692 3.692 0 0 1 1.682 3.428"/>
                    <path data-name="패스 26978" d="M78.423 35.929h5.664v7.219h3.623v-7.219h4.977l1.7-2.983H78.423z"/>
                    <path data-name="패스 26979" d="M85.894 31.554c4.5 0 6.841-2.316 6.841-5.6s-2.342-5.6-6.841-5.6-6.844 2.316-6.844 5.6 2.346 5.6 6.844 5.6m0-8.338c2.05 0 3.219 1.11 3.219 2.739s-1.169 2.74-3.219 2.74-3.218-1.111-3.218-2.74 1.168-2.739 3.218-2.739"/>
                    <path data-name="패스 26980" d="M32.599 20.416c-3.943 0-7.084 2.423-7.084 8.353s3.141 8.359 7.084 8.359 7.081-2.424 7.081-8.354-3.139-8.353-7.081-8.353m0 13.725c-2.061 0-3.378-1.845-3.378-5.372s1.317-5.37 3.378-5.37 3.379 1.842 3.379 5.37-1.317 5.372-3.379 5.372"/>
                    <path data-name="패스 26981" d="M95.339 24.159v18.99h3.622V20.731h-5.348a3.723 3.723 0 0 1 1.725 3.428"/>
                    <path data-name="패스 26982" d="M42.347 24.159v18.99h3.623V20.731h-5.306a3.69 3.69 0 0 1 1.684 3.428"/>
                    <path data-name="패스 26983" d="M54.292 32.907v-2.913h6.849v-2.978h-6.849v-3.3h7.235l1.708-2.982H48.987a3.7 3.7 0 0 1 1.683 3.428v9.784a2.649 2.649 0 0 0 2.664 2.785h10.32v-3.027h-8.537c-.645 0-.825-.257-.825-.8"/>
                    <path data-name="사각형 156" d="M101.908 36.73H124v2.983h-22.092z"/>
                    <path data-name="패스 26984" d="m107.943 34.268 4.953-4.945 5.3 4.945h4.732l-7.737-7.236 5.752-5.744h-16.3v2.984h8.563l-10.012 10z"/>
                </g>
            </g>
        </g>
    </g>
</svg>
